<?xml version="1.0"?>
<svg width="169" height="44" xmlns="http://www.w3.org/2000/svg" xmlns:svg="http://www.w3.org/2000/svg">
 <g class="layer">
  <title>Layer 1</title>
  <path clip-rule="evenodd" d="m44,22c0,12.15 -9.85,22 -22,22c-12.15,0 -22,-9.85 -22,-22c0,-12.15 9.85,-22 22,-22c12.15,0 22,9.85 22,22zm-28,-4c0,2.76 -2.24,5 -5,5c-2.76,0 -5,-2.24 -5,-5c0,-2.76 2.24,-5 5,-5c2.76,0 5,2.24 5,5zm-1,18c2.76,0 5,-2.24 5,-5c0,-2.76 -2.24,-5 -5,-5c-2.76,0 -5,2.24 -5,5c0,2.76 2.24,5 5,5zm19,-5c0,2.76 -2.24,5 -5,5c-2.76,0 -5,-2.24 -5,-5c0,-2.76 2.24,-5 5,-5c2.76,0 5,2.24 5,5zm-1,-8c2.76,0 5,-2.24 5,-5c0,-2.76 -2.24,-5 -5,-5c-2.76,0 -5,2.24 -5,5c0,2.76 2.24,5 5,5zm-6,-13c0,2.76 -2.24,5 -5,5c-2.76,0 -5,-2.24 -5,-5c0,-2.76 2.24,-5 5,-5c2.76,0 5,2.24 5,5zm-5,14c1.1,0 2,-0.9 2,-2c0,-1.1 -0.9,-2 -2,-2c-1.1,0 -2,0.9 -2,2c0,1.1 0.9,2 2,2z" fill="#E2D703" fill-rule="evenodd" id="svg_2"/>
  <path d="m33.5,38.5c2,-1.33 9.5,-3.5 16,1.5" id="svg_3" stroke="#E2D703" stroke-linecap="round" stroke-linejoin="round" stroke-width="3"/>
  <text fill="#ffff00" font-family="Helvetica" font-size="23" font-weight="bold" id="svg_4" stroke-width="0" text-anchor="middle" transform="matrix(1.35961 0 0 1 -29.0043 0)" x="98.5" xml:space="preserve" y="31.5">Filmak</text>
 </g>
</svg>